<svg width="200" height="201" viewBox="0 0 200 201" fill="none" xmlns="http://www.w3.org/2000/svg">
<path d="M0 3.28483C0 7.06261 1.11111 15.3959 2.05556 18.7293C5.88889 32.2848 13.1111 38.9515 27.7778 42.3959C31.5 43.2848 36.6111 43.3959 78.1667 43.6737L124.389 44.0071L62.2222 100.952L0.0555556 157.896L0 160.952C0 166.285 1.11111 173.84 2.77778 179.285C5.38889 187.729 8.55556 191.84 15.1111 195.174C20.2778 197.785 27.8333 199.618 36.6667 200.396C47.4444 201.34 167.444 200.896 171.389 199.896C187.5 195.84 194.222 190.063 197.722 177.007C199.889 169.063 200 165.174 200 101.229C200 34.0071 199.944 33.2848 197 25.1737C193.333 15.0071 185.944 7.61816 175.667 3.89594C167.611 0.895941 168.944 0.951496 81.2778 0.951496H0V3.28483ZM157.056 158.007C156.944 158.118 135.889 158.118 110.278 158.063L63.6667 157.896L110.333 115.063L156.944 72.2293L157.111 115.007C157.167 138.563 157.167 157.896 157.056 158.007Z" fill="#579471"/>
</svg>
